<?xml version="1.0" standalone="no"?><!DOCTYPE svg PUBLIC "-//W3C//DTD SVG 1.1//EN" "http://www.w3.org/Graphics/SVG/1.1/DTD/svg11.dtd"><svg t="1663491532188" class="icon" viewBox="0 0 1024 1024" version="1.1" xmlns="http://www.w3.org/2000/svg" p-id="2274" xmlns:xlink="http://www.w3.org/1999/xlink" width="200" height="200"><path d="M511.829333 554.666667a141.738667 141.738667 0 0 1-46.634666-7.893334L134.826667 432.213333a73.642667 73.642667 0 0 1 0-139.093333l330.666666-114.602667a142.165333 142.165333 0 0 1 93.141334 0L889.173333 293.12a73.642667 73.642667 0 0 1 0 139.136l-330.794666 114.602667a142.293333 142.293333 0 0 1-46.549334 7.808z" fill="#FFB531" p-id="2275"></path><path d="M565.632 616.149333a164.437333 164.437333 0 0 1-107.690667 0L256.256 546.133333a37.418667 37.418667 0 0 0-49.706667 35.413334v88.405333a112.298667 112.298667 0 0 0 73.557334 105.386667l193.152 71.04a112.298667 112.298667 0 0 0 77.482666 0l193.152-70.997334a112.298667 112.298667 0 0 0 73.557334-105.386666v-88.533334a37.418667 37.418667 0 0 0-49.664-35.413333z" fill="#030835" p-id="2276"></path></svg>